<?xml version="1.0" standalone="no"?><!DOCTYPE svg PUBLIC "-//W3C//DTD SVG 1.1//EN" "http://www.w3.org/Graphics/SVG/1.1/DTD/svg11.dtd"><svg t="1491801726424" class="icon" style="" viewBox="0 0 1024 1024" version="1.1" xmlns="http://www.w3.org/2000/svg" p-id="1335" xmlns:xlink="http://www.w3.org/1999/xlink" width="90" height="90"><defs><style type="text/css"></style></defs><path d="M512 0C229.25 0 0 229.129167 0 511.883333c0 174.229167 86.991667 328.041667 219.870833 420.5125 25.1625-87.6125 87.65-154.141667 172.783334-186.329166-16.641667 19.533333 1.808333 162.5 29.1125 143.291666l45.116666-31.654166 45-31.770834-2.966666-2.0875-42.029167-29.566666-65.3125-48.541667a10.058333 10.058333 0 0 0-2.9375-1.566667c-0.179167-0.0625-0.354167-0.095833-0.529167-0.1375l-1.2625 0.445834a299.279167 299.279167 0 0 1 13.1875-4.429167c1.25-0.391667 2.4875-0.795833 3.745834-1.175a328.775 328.775 0 0 1 26.116666-6.641667c1.320833-0.279167 2.658333-0.529167 3.991667-0.791666a352.2375 352.2375 0 0 1 14.229167-2.529167c3.233333-0.5 6.491667-0.954167 9.7625-1.366667 1.404167-0.175 2.795833-0.370833 4.208333-0.533333a364.775 364.775 0 0 1 14.054167-1.354167H537.991667c4.716667 0.354167 9.379167 0.820833 14.0125 1.35 1.458333 0.166667 2.8875 0.366667 4.3375 0.554167a356.125 356.125 0 0 1 14.379166 2.120833c3.1375 0.533333 6.25 1.1125 9.345834 1.725 1.4125 0.279167 2.833333 0.545833 4.2375 0.841667 4.316667 0.9125 8.604167 1.8875 12.8375 2.9625l0.341666 0.083333c4.308333 1.1 8.558333 2.295833 12.770834 3.558334 1.341667 0.4 2.670833 0.833333 4.008333 1.254166 2.920833 0.916667 5.820833 1.858333 8.695833 2.85 1.466667 0.508333 2.916667 1.020833 4.366667 1.545834-0.5375-0.195833-1.083333-0.383333-1.625-0.575-0.0875 0.0125-0.179167 0.05-0.266667 0.070833-1.1125 0.2375-2.304167 0.7875-3.5875 1.745833l-64.841666 48.541667-42.15 29.570833-2.966667 2.083334 45.116667 31.770833 45 31.654167c27.483333 19.333333 45.7125-125.695833 28.441666-143.675 85.6375 32.029167 148.5125 98.716667 173.7875 186.65 132.820833-92.479167 219.770833-246.2625 219.770834-420.445834C1024 229.129167 794.75 0 512 0z m0 725.541667c-130.433333 0-236.6-103.608333-240.858333-233.008334-0.145833-0.091667-0.291667-0.166667-0.4375-0.258333-4.945833-92.4375 42.85-163.65 103.758333-205.725 1.129167-0.7875 2.245833-1.6 3.3875-2.366667 1.15-0.770833 2.320833-1.483333 3.479167-2.229166 2.1625-1.395833 4.320833-2.8 6.529166-4.129167 2.166667-1.308333 4.358333-2.529167 6.545834-3.7625 0.966667-0.541667 1.908333-1.120833 2.883333-1.65 34.6875-19.008333 71.841667-29.0375 105.045833-28.745833 3.208333-0.125 6.420833-0.245833 9.658334-0.245834 3.1 0 6.175 0.116667 9.25 0.233334 26.55-0.183333 55.6 6.191667 83.895833 18.4375a241 241 0 0 1 68.141667 43.266666c48.941667 43.083333 84.0375 107.104167 79.770833 186.916667l-0.2 0.116667c-4.175 129.4625-110.375 233.15-240.85 233.15z" fill="#F7B970" p-id="1336"></path><path d="M394.408333 274.058333c0.9625-0.545833 1.916667-1.116667 2.883334-1.65-0.970833 0.533333-1.9125 1.1125-2.883334 1.65zM521.25 243.654167a243.183333 243.183333 0 0 0-9.25-0.233334c-3.2375 0-6.45 0.116667-9.658333 0.245834 3.1375 0.029167 6.245833 0.133333 9.304166 0.345833a151.845833 151.845833 0 0 1 9.604167-0.358333zM381.333333 281.954167c2.166667-1.4 4.333333-2.804167 6.529167-4.129167-2.208333 1.329167-4.366667 2.729167-6.529167 4.129167zM374.4625 286.55c1.133333-0.783333 2.25-1.604167 3.3875-2.366667-1.141667 0.770833-2.254167 1.579167-3.3875 2.366667zM605.141667 262.091667a259.9875 259.9875 0 0 1 68.141666 43.266666 241.095833 241.095833 0 0 0-68.141666-43.266666zM472.25 386.820833c-46.3125 81.295833-124.7875 153.329167-201.108333 105.7125 4.254167 129.4 110.425 233.008333 240.858333 233.008334 130.475 0 236.675-103.6875 240.858333-233.15-63.745833 39.783333-230.979167-17.845833-280.608333-105.570834z" fill="#FCE9EA" p-id="1337"></path><path d="M597.1375 735.208333l0.341667 0.083334-0.341667-0.083334zM625.429167 743.991667c0.0875-0.020833 0.183333-0.058333 0.266666-0.070834 0.541667 0.191667 1.0875 0.379167 1.625 0.575a336.225 336.225 0 0 0-4.366666-1.545833c0.845833 0.291667 1.683333 0.6 2.525 0.895833-0.020833 0.045833-0.029167 0.095833-0.05 0.145834zM565.920833 728.904167zM580.0625 731.404167c1.4125 0.279167 2.833333 0.545833 4.2375 0.841666-1.404167-0.295833-2.825-0.5625-4.2375-0.841666zM630.441667 745.679167c17.270833 17.979167-0.958333 163.008333-28.441667 143.675l-45-31.654167-45.116667-31.770833-45 31.770833-45.116666 31.654167c-27.308333 19.208333-45.754167-123.758333-29.1125-143.291667-85.133333 32.1875-147.620833 98.7125-172.783334 186.329167 82.854167 57.6625 183.5375 91.4875 292.129167 91.4875 108.6375 0 209.354167-33.854167 292.229167-91.554167-25.279167-87.929167-88.154167-154.620833-173.7875-186.645833zM401.079167 742.979167c-1.420833 0.4875-2.833333 0.9875-4.241667 1.495833l1.2625-0.445833c0.175 0.041667 0.35 0.079167 0.529167 0.1375l-0.095834-0.2875c0.85-0.3 1.691667-0.604167 2.545834-0.9z" fill="#D5E270" p-id="1338"></path><path d="M512 823.920833c-1.0375 0-2.058333-0.054167-3.0875-0.079166l2.966667 2.0875 2.966666-2.083334c-0.945833 0.025-1.891667 0.075-2.845833 0.075zM610.25 738.845833c1.341667 0.4 2.670833 0.833333 4.008333 1.254167-1.3375-0.420833-2.666667-0.854167-4.008333-1.254167zM453.483333 729.6625zM439.8875 732.229167c1.320833-0.279167 2.658333-0.529167 3.991667-0.791667-1.329167 0.2625-2.666667 0.5125-3.991667 0.791667zM552 727.004167c1.454167 0.166667 2.8875 0.370833 4.3375 0.554166-1.45-0.1875-2.883333-0.3875-4.3375-0.554166zM410.025 740.045833c1.25-0.391667 2.491667-0.795833 3.745833-1.175-1.258333 0.379167-2.495833 0.7875-3.745833 1.175zM467.875 727.541667c1.404167-0.175 2.795833-0.370833 4.208333-0.533334-1.4125 0.1625-2.804167 0.358333-4.208333 0.533334z" fill="#D5E270" p-id="1339"></path><path d="M514.85 823.85l42.15-29.570833 64.841667-48.541667c1.2875-0.954167 2.479167-1.508333 3.5875-1.745833l0.054166-0.145834c-0.841667-0.295833-1.679167-0.604167-2.525-0.895833a336.795833 336.795833 0 0 0-8.695833-2.85c-1.3375-0.420833-2.666667-0.854167-4.008333-1.254167a323.458333 323.458333 0 0 0-12.770834-3.558333l-0.341666-0.083333a326.779167 326.779167 0 0 0-12.8375-2.9625c-1.404167-0.295833-2.825-0.5625-4.2375-0.841667a352.491667 352.491667 0 0 0-14.1375-2.504167 338 338 0 0 0-9.5875-1.341666c-1.45-0.183333-2.883333-0.3875-4.3375-0.554167a362.616667 362.616667 0 0 0-14.0125-1.35H486.141667a365.575 365.575 0 0 0-14.054167 1.354167c-1.408333 0.1625-2.804167 0.358333-4.208333 0.533333-3.275 0.416667-6.529167 0.866667-9.7625 1.366667a336.945833 336.945833 0 0 0-14.229167 2.529166c-1.329167 0.2625-2.666667 0.5125-3.991667 0.791667a326.9875 326.9875 0 0 0-26.116666 6.641667c-1.258333 0.379167-2.5 0.783333-3.745834 1.175-3.008333 0.941667-5.991667 1.908333-8.945833 2.933333-0.854167 0.291667-1.695833 0.6-2.545833 0.9l0.095833 0.2875c0.925 0.291667 1.9 0.795833 2.9375 1.566667l65.3125 48.541666 42.029167 29.566667c1.029167 0.025 2.05 0.079167 3.0875 0.079167 0.95 0.004167 1.895833-0.045833 2.845833-0.066667z" fill="#FEFEFE" p-id="1340"></path><path d="M472.25 386.820833c49.629167 87.725 216.8625 145.354167 280.608333 105.570834l0.2-0.116667c4.266667-79.8125-30.825-143.833333-79.770833-186.916667a260.054167 260.054167 0 0 0-68.141667-43.266666c-28.295833-12.245833-57.345833-18.625-83.895833-18.4375-3.2375 0.020833-6.441667 0.1375-9.604167 0.358333 8.2875 29.516667-8.3125 88.245833-39.395833 142.808333z" fill="#ED7667" p-id="1341"></path><path d="M472.25 386.820833c31.083333-54.5625 47.683333-113.2875 39.395833-142.808333a151.9875 151.9875 0 0 0-9.304166-0.345833c-33.204167-0.291667-70.358333 9.7375-105.045834 28.745833-0.966667 0.529167-1.920833 1.104167-2.883333 1.65-2.1875 1.233333-4.379167 2.454167-6.545833 3.7625-2.195833 1.325-4.3625 2.729167-6.529167 4.129167-1.158333 0.745833-2.329167 1.4625-3.479167 2.229166-1.141667 0.7625-2.258333 1.583333-3.3875 2.366667-60.916667 42.075-108.7125 113.2875-103.766666 205.725 0.145833 0.091667 0.291667 0.166667 0.4375 0.258333 76.320833 47.616667 154.795833-24.416667 201.108333-105.7125z" fill="#F08E83" p-id="1342"></path></svg>