<?xml version="1.0" standalone="no"?><!DOCTYPE svg PUBLIC "-//W3C//DTD SVG 1.1//EN" "http://www.w3.org/Graphics/SVG/1.1/DTD/svg11.dtd"><svg t="1491812955242" class="icon" style="" viewBox="0 0 1024 1024" version="1.1" xmlns="http://www.w3.org/2000/svg" p-id="4549" xmlns:xlink="http://www.w3.org/1999/xlink" width="70" height="70"><defs><style type="text/css"></style></defs><path d="M0 775.606857h20.801829v57.987657H0V775.606857z m24.400457 194.589257l-19.207314 7.606857a73.3184 73.3184 0 0 0 48.420571 43.402972l5.588115-19.807086a53.1456 53.1456 0 0 1-34.801372-31.202743zM0 874.993371h20.801829v58.002286H0v-58.002286zM0 576.804571h20.801829v58.002286H0V576.804571z m0 99.401143h20.801829v57.987657H0v-57.987657zM208.398629 0h58.002285v20.801829h-58.002285V0zM108.997486 0h58.002285v20.801829H108.997486V0zM11.000686 34.596571l17.598171 11.000686a52.896914 52.896914 0 0 1 39.789714-24.590628L66.413714 0.394971C44.002743 2.399086 23.200914 15.213714 11.000686 34.596571z m86.805943 968.6016h57.987657V1024H97.806629v-20.801829z m99.386514 0h58.002286V1024H197.193143v-20.801829zM307.799771 0h58.002286v20.801829H307.785143V0zM0 477.403429h20.801829V535.405714H0v-58.002285zM407.200914 0H465.188571v20.801829h-58.002285V0z m198.802286 0h58.002286v20.801829h-58.002286V0z m354.2016 21.6064l3.803429-20.406857a71.460571 71.460571 0 0 0-13.019429-1.199543h-46.986971v20.801829h47.0016c3.203657 0 6.392686 0.394971 9.201371 0.804571zM506.587429 0h58.002285v20.801829H506.587429V0zM0 278.601143h20.801829v58.002286H0v-58.002286z m0 99.401143h20.801829v58.002285H0V378.002286z m0-198.802286h20.801829v58.002286H0V179.2z m0-99.401143h20.801829V137.801143H0V79.798857z m951.003429 923.399314h-58.002286V1024h58.002286c11.000686 0 21.4016-2.194286 31.202742-7.007086l-9.0112-18.592914a56.027429 56.027429 0 0 1-22.191542 4.798171z m52.194742-478.793142H1024v58.002285h-20.801829v-58.002285z m0 298.1888H1024v58.002285h-20.801829v-58.002285z m0-99.386515H1024v57.987657h-20.801829v-58.002285z m0-298.203428H1024v58.002285h-20.801829v-58.002285z m0 198.802285H1024v57.987658h-20.801829v-57.987658z m2.194286-599.405714l-15.389257 13.794743c8.6016 9.610971 13.194971 22.001371 13.194971 34.816v12.3904H1024V72.996571c0-17.993143-6.597486-34.991543-18.592914-48.596114z m-2.194286 102.4H1024v58.002286h-20.801829V126.800457z m0 99.401143H1024v58.002286h-20.801829v-58.002286z m0 99.401143H1024v58.002286h-20.801829v-58.002286z m-706.603885 677.595428h58.002285V1024h-58.002285v-20.801829z m198.802285 0h58.002286V1024h-58.002286v-20.801829z m198.802286 0h58.002286V1024h-58.002286v-20.801829z m308.999314-52.194742c0 8.192-1.799314 16.193829-5.602742 23.405714l18.402742 9.391543a72.001829 72.001829 0 0 0 7.797029-32.797257v-29.008458h-20.801829l0.2048 29.008458zM395.995429 1003.198171h58.002285V1024H395.995429v-20.801829z m198.802285 0h58.002286V1024H594.797714v-20.801829zM804.805486 0h57.987657v20.801829h-57.987657V0zM705.389714 0h58.002286v20.801829H705.389714V0z m88.195657 1003.198171h58.002286V1024H793.6v-20.801829zM530.592914 704.599771V530.592914h174.006857V493.421714H530.592914V319.400229H493.421714v174.006857H319.400229v37.185828h174.006857v174.006857h37.185828z" fill="#BBBBBB" p-id="4550"></path></svg>