<?xml version="1.0" standalone="no"?><!DOCTYPE svg PUBLIC "-//W3C//DTD SVG 1.1//EN" "http://www.w3.org/Graphics/SVG/1.1/DTD/svg11.dtd"><svg t="1491719677097" class="icon" style="" viewBox="0 0 1024 1024" version="1.1" xmlns="http://www.w3.org/2000/svg" p-id="52038" xmlns:xlink="http://www.w3.org/1999/xlink" width="40" height="40"><defs><style type="text/css"></style></defs><path d="M266.9568 879.872c11.264-3.7888 18.7904 0 30.1056 3.7376 63.8976 37.632 139.1104 56.4224 210.5344 56.4224 236.9024 0 432.4352-195.584 432.4352-432.4352 0-236.8512-195.584-432.384-432.4352-432.384-236.8512 0-432.384 195.5328-432.384 432.384a430.592 430.592 0 0 0 86.4768 259.4816c7.5264 11.264 7.5264 22.528 7.5264 33.792l-37.632 120.32 135.3728-41.3184z m-176.6912-82.7392C30.1056 710.6048 0 612.9152 0 507.5968 0 229.376 229.376 0 507.5968 0c278.272 0 507.5968 229.376 507.5968 507.5968 0 278.272-229.376 507.5968-507.5968 507.5968-82.688 0-161.6896-18.7904-233.1136-56.3712L86.528 1015.1936c-15.0528 3.7888-26.3168 0-37.5808-11.264-11.264-11.264-15.0528-22.528-11.264-37.5808l52.6336-169.216z m229.376-345.9072a57.856 57.856 0 0 1 56.32 56.3712 57.856 57.856 0 0 1-56.32 56.4224A57.856 57.856 0 0 1 263.168 507.5968a57.856 57.856 0 0 1 56.3712-56.3712z m187.9552 0a57.856 57.856 0 0 1 56.4224 56.3712 57.856 57.856 0 0 1-56.4224 56.4224 57.856 57.856 0 0 1-56.3712-56.4224 57.856 57.856 0 0 1 56.3712-56.3712z m188.0064 0a57.856 57.856 0 0 1 56.4224 56.3712 57.856 57.856 0 0 1-56.4224 56.4224 57.856 57.856 0 0 1-56.4224-56.4224 57.856 57.856 0 0 1 56.4224-56.3712z" fill="#999999" p-id="52039"></path></svg>