<?xml version="1.0" standalone="no"?><!DOCTYPE svg PUBLIC "-//W3C//DTD SVG 1.1//EN" "http://www.w3.org/Graphics/SVG/1.1/DTD/svg11.dtd"><svg t="1491813799591" class="icon" style="" viewBox="0 0 1024 1024" version="1.1" xmlns="http://www.w3.org/2000/svg" p-id="7122" xmlns:xlink="http://www.w3.org/1999/xlink" width="40" height="40"><defs><style type="text/css"></style></defs><path d="M853.510024 170.489976c-188.610682-188.610682-494.409366-188.610682-683.020048 0s-188.610682 494.409366 0 683.020048 494.409366 188.610682 683.020048 0S1042.120706 359.100658 853.510024 170.489976zM717.853391 746.58476 512 540.730345 306.145585 746.58476c-7.900947 7.900947-20.829398 7.900947-28.730345 0-7.900947-7.900947-7.900947-20.829398 0-28.730345l205.853391-205.853391L277.41524 306.145585c-7.900947-7.900947-7.900947-20.829398 0-28.730345 7.900947-7.900947 20.829398-7.900947 28.730345 0l205.854415 205.854415L717.853391 277.41524c7.900947-7.900947 20.829398-7.900947 28.730345 0 7.900947 7.900947 7.900947 20.829398 0 28.730345L540.730345 512l205.853391 205.853391c7.900947 7.900947 7.900947 20.829398 0 28.730345C738.683812 754.485707 725.754339 754.485707 717.853391 746.58476z" p-id="7123" fill="#d81e06"></path></svg>