<?xml version="1.0" standalone="no"?><!DOCTYPE svg PUBLIC "-//W3C//DTD SVG 1.1//EN" "http://www.w3.org/Graphics/SVG/1.1/DTD/svg11.dtd"><svg t="1491565189737" class="icon" style="" viewBox="0 0 1024 1024" version="1.1" xmlns="http://www.w3.org/2000/svg" p-id="3703" xmlns:xlink="http://www.w3.org/1999/xlink" width="60" height="60"><defs><style type="text/css"></style></defs><path d="M979.792374 404.577188 574.183101 83.942886c-34.918864-27.694272-89.619352-27.694272-124.538216 0L44.207626 404.577188c-13.933143 11.008903-16.169326 31.134554-5.332437 44.895683s30.618512 16.169326 44.551655 5.332437l12.55703-10.320847 0 387.547791c0 54.872501 57.968755 95.983874 108.712918 95.983874l639.892491 0c50.22812 0 83.254829-38.531161 83.254829-95.983874L927.844112 445.860575l11.69696 8.944734c5.84848 4.644381 13.073072 6.880564 20.125651 6.880564 9.460776 0 18.921552-4.128339 25.286074-12.213002C995.9617 435.711742 993.725517 415.586091 979.792374 404.577188zM479.919368 864.026877 479.919368 686.508315c0-8.77272 15.997312-13.245087 31.994625-13.245087s31.994625 4.472367 31.994625 13.245087l0 177.346548L479.919368 864.026877 479.919368 864.026877zM864.026877 832.032253c0 21.157736-5.84848 31.994625-19.26558 31.994625L608.585923 864.026877c0-0.516042-0.688056-0.860071-0.688056-1.376113L607.897867 686.508315c0-37.155048-29.930455-77.234336-95.983874-77.234336s-95.983874 40.079288-95.983874 77.234336l0 176.142449c0 0.516042 0.860071 0.860071 0.860071 1.376113L204.868806 864.026877c-20.125651 0-44.723669-17.373425-44.723669-31.994625L160.145137 393.740299 488.864102 134.171006c11.868974-9.288762 33.198723-9.288762 44.895683 0l330.095078 261.11742L863.854863 832.032253z" p-id="3704" fill="#bfbfbf"></path></svg>