<?xml version="1.0" standalone="no"?><!DOCTYPE svg PUBLIC "-//W3C//DTD SVG 1.1//EN" "http://www.w3.org/Graphics/SVG/1.1/DTD/svg11.dtd"><svg t="1491721497280" class="icon" style="" viewBox="0 0 1024 1024" version="1.1" xmlns="http://www.w3.org/2000/svg" p-id="6758" xmlns:xlink="http://www.w3.org/1999/xlink" width="40" height="40"><defs><style type="text/css"></style></defs><path d="M85.534704 937.215444h129.487383v-468.35862H87.83058v468.35862m670.854846 86.784097H399.610484a43.621636 43.621636 0 0 1 0-86.784097h359.074942a18.367005 18.367005 0 0 0 10.561028-3.214226 16.989479 16.989479 0 0 0 6.428451-8.724327l155.20119-358.615767a72.549668 72.549668 0 0 0-5.510102-68.417092 70.253793 70.253793 0 0 0-59.23359-32.601433h-225.454982a42.703286 42.703286 0 0 1-40.866586-30.764733 45.917512 45.917512 0 0 1 17.448655-48.672563c36.734009-24.795456 72.090493-159.792941 42.703286-249.791263-16.530304-50.968438-42.703286-49.131738-54.182664-48.672563h-12.397728a61.988641 61.988641 0 0 0-45.917512 18.82618 64.284516 64.284516 0 0 0-18.367005 45.917512v57.856064a259.433941 259.433941 0 0 1-74.386369 183.670047 248.872913 248.872913 0 0 1-156.119539 74.845544v470.654495a84.488222 84.488222 0 0 1-22.499581 59.692766 81.733171 81.733171 0 0 1-58.31524 24.795456h-137.752535a78.05977 78.05977 0 0 1-56.47854-23.877106 81.273996 81.273996 0 0 1-22.958755-57.39689V470.693525a89.079973 89.079973 0 0 1 25.254631-62.906991 85.865747 85.865747 0 0 1 61.988641-25.713807H276.092378a165.762217 165.762217 0 0 0 118.926355-50.509263 173.109019 173.109019 0 0 0 50.509263-121.222231V151.107643A150.609438 150.609438 0 0 1 489.149632 45.956542a145.558512 145.558512 0 0 1 104.691927-45.917512h10.101852a137.752535 137.752535 0 0 1 137.752535 107.906152 424.736983 424.736983 0 0 1-17.448654 269.994969h142.344286a154.742014 154.742014 0 0 1 130.405734 72.549669 160.711291 160.711291 0 0 1 13.775253 150.609438l-156.11954 357.238241a104.691927 104.691927 0 0 1-37.652359 45.917512 102.396051 102.396051 0 0 1-58.31524 19.74453z" p-id="6759" fill="#999999"></path></svg>