<?xml version="1.0" standalone="no"?><!DOCTYPE svg PUBLIC "-//W3C//DTD SVG 1.1//EN" "http://www.w3.org/Graphics/SVG/1.1/DTD/svg11.dtd"><svg t="1491818477041" class="icon" style="" viewBox="0 0 1024 1024" version="1.1" xmlns="http://www.w3.org/2000/svg" p-id="8013" xmlns:xlink="http://www.w3.org/1999/xlink" width="40" height="40"><defs><style type="text/css"></style></defs><path d="M501.777683 800.158932 512.526491 811.228035l10.751878-11.069103c0.672312-0.672312 66.969251-69.062935 132.349307-153.009859 89.239464-114.535593 134.503367-202.556299 134.503367-261.59902 0-69.102844-29.074176-133.978411-81.833797-182.66425C655.947971 154.537655 586.396919 127.913275 512.526491 127.913275c-73.887824 0-143.41841 26.624381-195.768709 74.971505-52.780087 48.686862-81.83482 113.562429-81.83482 182.66425 0 59.042721 45.263903 147.063427 134.50132 261.59902C434.806385 731.095997 501.103324 799.48662 501.777683 800.158932zM512.526491 291.805996c52.855812 0 95.875604 43.636846 95.875604 97.259114 0 53.658084-43.019793 97.293907-95.875604 97.293907-52.852742 0-95.873558-43.636846-95.873558-97.293907C416.652933 335.442842 459.673749 291.805996 512.526491 291.805996zM675.971004 738.610134l-24.025183 24.006763c15.742543 10.133801 25.051559 21.463848 25.051559 32.383548 0 30.924313-71.38277 65.472154-166.939103 65.472154-95.557356 0-166.940127-34.548864-166.940127-65.472154 0-11.92868 10.825556-24.344454 29.371958-35.18843l-21.762653-25.64917c-25.445532 16.526395-40.384779 37.467333-40.384779 60.799738 0 56.275701 85.834924 98.717326 199.715601 98.717326 113.879654 0 199.696158-42.403762 199.696158-98.717326C709.718619 773.72284 697.415408 754.389516 675.971004 738.610134z" p-id="8014" fill="#FA6570"></path></svg>