<?xml version="1.0" standalone="no"?><!DOCTYPE svg PUBLIC "-//W3C//DTD SVG 1.1//EN" "http://www.w3.org/Graphics/SVG/1.1/DTD/svg11.dtd"><svg t="1493280205970" class="icon" style="" viewBox="0 0 1024 1024" version="1.1" xmlns="http://www.w3.org/2000/svg" p-id="3284" xmlns:xlink="http://www.w3.org/1999/xlink" width="60" height="60"><defs><style type="text/css"></style></defs><path d="M771.600676 382.481085l187.510412 0 0 62.503471L771.600676 444.984556 771.600676 382.481085 771.600676 382.481085zM771.600676 382.481085" p-id="3285" fill="#555555"></path><path d="M271.569839 820.008451c-8.002638 0-16.00016-3.048575-22.102427-9.15289L61.958022 623.342078l44.199738-44.194621 165.412078 165.412078 540.435973-540.436997 44.194621 44.199738L293.66715 810.855561C287.563859 816.959875 279.567361 820.008451 271.569839 820.008451L271.569839 820.008451zM271.569839 820.008451" p-id="3286" fill="#555555"></path><path d="M521.583722 757.506003l437.527366 0 0 62.503471L521.583722 820.009474 521.583722 757.506003 521.583722 757.506003zM521.583722 757.506003" p-id="3287" fill="#555555"></path><path d="M646.593734 569.995591l312.516331 0 0 62.503471L646.593734 632.499062 646.593734 569.995591 646.593734 569.995591zM646.593734 569.995591" p-id="3288" fill="#555555"></path></svg>