<?xml version="1.0" standalone="no"?><!DOCTYPE svg PUBLIC "-//W3C//DTD SVG 1.1//EN" "http://www.w3.org/Graphics/SVG/1.1/DTD/svg11.dtd"><svg t="1491565009956" class="icon" style="" viewBox="0 0 1024 1024" version="1.1" xmlns="http://www.w3.org/2000/svg" p-id="2881" xmlns:xlink="http://www.w3.org/1999/xlink" width="60" height="60"><defs><style type="text/css"></style></defs><path d="M511.913993 928.016126c-8.256677 0-16.341341-3.096254-22.705863-9.460776l-95.983874-95.983874c-12.55703-12.55703-12.55703-32.682681 0-45.239711s32.682681-12.55703 45.239711 0l73.450025 73.450025 73.450025-73.450025c6.020494-6.020494 14.105157-9.460776 22.705863-9.460776l223.962372 0c17.717453 0 31.994625-14.277171 31.994625-31.994625L864.026877 223.962372c0-17.545439-14.277171-31.994625-31.994625-31.994625l-639.892491 0c-17.545439 0-31.994625 14.449185-31.994625 31.994625l0 511.913993c0 17.717453 14.449185 31.994625 31.994625 31.994625l95.983874 0c17.717453 0 31.994625 14.277171 31.994625 31.994625s-14.277171 31.994625-31.994625 31.994625l-95.983874 0c-52.980346 0-95.983874-43.003528-95.983874-95.983874L96.155888 223.962372c0-52.980346 43.003528-95.983874 95.983874-95.983874l639.892491 0c52.980346 0 95.983874 43.003528 95.983874 95.983874l0 511.913993c0 52.980346-43.003528 95.983874-95.983874 95.983874L621.142953 831.860239 534.619856 918.55535C528.427348 924.747858 520.17067 928.016126 511.913993 928.016126z" p-id="2882" fill="#bfbfbf"></path><path d="M335.943558 511.913993c-26.490173 0-47.991937-21.501764-47.991937-47.991937s21.501764-47.991937 47.991937-47.991937 47.991937 21.501764 47.991937 47.991937S362.433731 511.913993 335.943558 511.913993z" p-id="2883" fill="#bfbfbf"></path><path d="M527.911305 511.913993c-26.490173 0-47.991937-21.501764-47.991937-47.991937s21.501764-47.991937 47.991937-47.991937 47.991937 21.501764 47.991937 47.991937S554.401478 511.913993 527.911305 511.913993z" p-id="2884" fill="#bfbfbf"></path><path d="M720.051067 511.913993c-26.490173 0-47.991937-21.501764-47.991937-47.991937s21.501764-47.991937 47.991937-47.991937c26.490173 0 47.991937 21.501764 47.991937 47.991937S746.369226 511.913993 720.051067 511.913993z" p-id="2885" fill="#bfbfbf"></path></svg>