<?xml version="1.0" standalone="no"?><!DOCTYPE svg PUBLIC "-//W3C//DTD SVG 1.1//EN" "http://www.w3.org/Graphics/SVG/1.1/DTD/svg11.dtd"><svg t="1491720546302" class="icon" style="" viewBox="0 0 1024 1024" version="1.1" xmlns="http://www.w3.org/2000/svg" p-id="57976" xmlns:xlink="http://www.w3.org/1999/xlink" width="40" height="40"><defs><style type="text/css"></style></defs><path d="M115.919103 400.920112c-61.248969 0-111.079888 49.829895-111.079888 111.079888 0 61.249993 49.829895 111.079888 111.079888 111.079888s111.079888-49.829895 111.079888-111.079888C226.998991 450.750007 177.169095 400.920112 115.919103 400.920112z" p-id="57977" fill="#999999"></path><path d="M512.929162 400.920112c-61.249993 0-111.079888 49.829895-111.079888 111.079888 0 61.249993 49.829895 111.079888 111.079888 111.079888 61.248969 0 111.079888-49.829895 111.079888-111.079888C624.00905 450.750007 574.178131 400.920112 512.929162 400.920112z" p-id="57978" fill="#999999"></path><path d="M909.938198 400.920112c-61.248969 0-111.079888 49.829895-111.079888 111.079888 0 61.249993 49.829895 111.079888 111.079888 111.079888s111.079888-49.829895 111.079888-111.079888C1021.018086 450.750007 971.187167 400.920112 909.938198 400.920112z" p-id="57979" fill="#999999"></path></svg>