<?xml version="1.0" standalone="no"?><!DOCTYPE svg PUBLIC "-//W3C//DTD SVG 1.1//EN" "http://www.w3.org/Graphics/SVG/1.1/DTD/svg11.dtd"><svg t="1491565082567" class="icon" style="" viewBox="0 0 1024 1024" version="1.1" xmlns="http://www.w3.org/2000/svg" p-id="3157" xmlns:xlink="http://www.w3.org/1999/xlink" width="60" height="60"><defs><style type="text/css"></style></defs><path d="M877.443978 872.455569c0 0-162.897363-82.738787-237.723501-88.071225l0-23.737947c119.721821-50.916177 195.064001-174.93835 195.064001-319.946246 0-190.075592-145.867966-344.544263-325.106669-344.544263s-325.106669 154.640685-325.106669 344.544263c0 146.728036 77.40635 271.954309 199.536368 321.666387l0 22.017806-1.548127 0c-69.493701 3.440282-235.315303 87.727196-235.315303 87.727196S125.570301 890.345036 127.978498 904.106165c2.408198 13.761129 14.793214 23.909961 29.070385 23.909961L423.154712 928.016126l177.346548 0 265.933815 0c14.277171 0 26.318159-9.804804 29.070385-23.393919C898.257685 891.033093 877.443978 872.455569 877.443978 872.455569z" p-id="3158" fill="#FA6570"></path></svg>