<?xml version="1.0" standalone="no"?><!DOCTYPE svg PUBLIC "-//W3C//DTD SVG 1.1//EN" "http://www.w3.org/Graphics/SVG/1.1/DTD/svg11.dtd"><svg t="1491565089291" class="icon" style="" viewBox="0 0 1024 1024" version="1.1" xmlns="http://www.w3.org/2000/svg" p-id="3430" xmlns:xlink="http://www.w3.org/1999/xlink" width="60" height="60"><defs><style type="text/css"></style></defs><path d="M159.973123 928.016126c-10.664875 0-20.985721-5.332437-27.178229-14.965228-9.460776-14.965228-4.988409-34.74685 9.976818-44.207626 5.504452-3.440282 136.579204-85.491013 240.647741-90.651436l0.516042 0L383.935495 760.302369c-120.409877-49.884092-199.708382-175.626407-199.708382-320.462288 0-189.55955 145.867966-343.856207 325.278683-343.856207s325.278683 154.124643 325.278683 343.856207c0 144.663867-75.858223 267.137914-195.064001 318.398119l0 20.297665c104.756593 9.460776 234.799261 86.695112 240.475727 89.96338 15.137242 9.116748 20.125651 28.726356 11.008903 43.863598-9.116748 15.137242-28.726356 20.125651-43.863598 11.008903-1.204099-0.688056-126.258357-74.826138-214.157568-81.362674l-25.458088 0c-17.717453 0-31.994625-14.277171-31.994625-31.994625l0-73.966068c0-13.589115 8.600706-25.802117 21.673778-30.274483 105.44465-36.294977 173.390223-140.707542 173.390223-266.277843C770.967243 285.543423 653.825634 159.973123 509.67781 159.973123c-144.147825 0-261.289434 125.570301-261.289434 279.866958 0 125.742315 71.385856 233.251134 177.518562 267.653956 13.245087 4.300353 22.18982 16.513355 22.18982 30.446498l0 72.245926c0 17.717453-14.277171 31.994625-31.994625 31.994625l-30.96254 0c-85.835041 4.300353-206.760961 79.986561-207.96506 80.846632C171.842096 926.295985 165.821603 928.016126 159.973123 928.016126z" p-id="3431" fill="#bfbfbf"></path></svg>