<?xml version="1.0" standalone="no"?><!DOCTYPE svg PUBLIC "-//W3C//DTD SVG 1.1//EN" "http://www.w3.org/Graphics/SVG/1.1/DTD/svg11.dtd"><svg t="1493280183030" class="icon" style="" viewBox="0 0 1024 1024" version="1.1" xmlns="http://www.w3.org/2000/svg" p-id="2374" xmlns:xlink="http://www.w3.org/1999/xlink" width="60" height="60"><defs><style type="text/css"></style></defs><path d="M960.907033 743.123938c-0.029676 0-0.063445 0-0.093121 0l-81.249489 0.288572c17.071817-27.40414 31.024597-56.579623 41.652655-87.152942 16.010649-46.056965 24.12956-94.350878 24.12956-143.54223 0-58.982346-11.55722-116.213815-34.351366-170.105213-22.011316-52.039213-53.516868-98.770538-93.640704-138.895397-40.124859-40.124859-86.856184-71.630411-138.895397-93.640704-53.890374-22.794146-111.122867-34.351366-170.104189-34.351366-49.959855 0-98.968036 8.368598-145.662521 24.87248-13.3214 4.708232-20.303418 19.324114-15.595186 32.645514 4.709255 13.322423 19.326161 20.301372 32.645514 15.595186 41.204447-14.562671 84.47495-21.947871 128.612193-21.947871 103.058191 0 199.947891 40.133046 272.820596 113.006773 72.873728 72.873728 113.006773 169.763428 113.006773 272.821619 0 43.457768-7.164167 86.09996-21.292955 126.741589-9.219989 26.524097-21.289885 51.853995-36.016285 75.688843l-25.498744-73.662697c-4.622274-13.351076-19.189038-20.425192-32.544207-15.807011-13.352099 4.622274-20.428262 19.192108-15.807011 32.544207l41.141002 118.852922c1.37737 3.979638 3.6399 7.40055 6.488785 10.121522 4.635577 4.670369 11.057847 7.562233 18.153452 7.562233 0.029676 0 0.063445 0 0.093121 0l132.096551-0.469698c14.128789-0.050142 25.541723-11.544941 25.491581-25.673729C986.438523 754.517429 974.994889 743.123938 960.907033 743.123938z" p-id="2375" fill="#555555"></path><path d="M675.532517 860.550371c-52.352345 25.212218-108.600417 37.995359-167.178557 37.995359-103.058191 0-199.948915-40.133046-272.822642-113.006773C162.658613 712.667276 122.525568 615.776551 122.525568 512.718361c0-83.808778 27.117614-164.703179 76.923974-231.18022l33.394574 93.504604c3.736091 10.463306 13.585413 16.98586 24.092721 16.98586 2.855024 0 5.760191-0.481977 8.602935-1.497097 13.30605-4.752234 20.239973-19.390629 15.487739-32.69668l-45.712111-127.995139c-4.123924-11.546987-15.692401-18.289552-27.377534-16.765849-1.88186-0.441045-3.840468-0.681522-5.856381-0.681522-0.029676 0-0.060375 0-0.089028 0L64.857147 212.860992c-14.128789 0.048095-25.542746 11.540847-25.495674 25.669636 0.048095 14.099113 11.491729 25.495674 25.580608 25.495674 0.029676 0 0.060375 0 0.089028 0l84.191494-0.287549c-50.497091 72.759117-77.863369 159.39836-77.863369 248.979608 0 58.982346 11.55722 116.214838 34.351366 170.105213 22.011316 52.040237 53.515844 98.770538 93.640704 138.895397 40.123836 40.124859 86.85516 71.629387 138.895397 93.640704 53.891398 22.794146 111.122867 34.351366 170.105213 34.351366 66.327638 0 130.043798-14.487969 189.377138-43.061748 12.729929-6.130627 18.079774-21.419845 11.95017-34.148751S688.262446 854.422813 675.532517 860.550371z" p-id="2376" fill="#555555"></path></svg>