<?xml version="1.0" standalone="no"?><!DOCTYPE svg PUBLIC "-//W3C//DTD SVG 1.1//EN" "http://www.w3.org/Graphics/SVG/1.1/DTD/svg11.dtd"><svg t="1491824579063" class="icon" style="" viewBox="0 0 1024 1024" version="1.1" xmlns="http://www.w3.org/2000/svg" p-id="9756" xmlns:xlink="http://www.w3.org/1999/xlink" width="60" height="60"><defs><style type="text/css"></style></defs><path d="M995.573577 93.980441c-12.332886-11.45796-30.229488-14.500249-45.708018-7.978718L40.739866 472.730625c-16.208147 6.89606-26.521027 23.062252-25.937742 40.666188 0.583285 17.625426 11.916401 33.063023 28.562523 38.875402l189.93791 66.437132c22.312168 7.791453 46.582945-3.937682 54.353932-26.187429 7.791453-22.229281-3.937682-46.582945-26.187429-54.353932l-85.895299-30.0412 720.083176-306.312384-168.958086 499.770468-294.643624-98.208742 189.788507-127.58377c19.542078-13.145391 24.749684-39.666418 11.604292-59.228963-13.166881-19.542078-39.645952-24.708751-59.228963-11.604292L318.531684 576.856124c-11.791557 7.937786-18.854417 21.208021-18.854417 35.416628l0 286.458197c0 16.521279 9.541307 31.541367 24.479531 38.604226 5.791913 2.729158 12.000312 4.062526 18.187221 4.062526 9.729595 0 19.35379-3.332908 27.146267-9.750061l156.249647-128.917138c18.187221-14.999622 20.771069-41.896202 5.770424-60.062957-14.999622-18.187221-41.916668-20.771069-60.062957-5.770424l-86.437651 71.312162L385.009747 677.652807l355.00027 118.327966c4.479011 1.500167 9.041934 2.208295 13.500479 2.208295 17.812691-0.020466 34.416857-11.228739 40.416502-29.020964l213.062584-630.228705C1012.385475 123.001405 1007.906463 105.397469 995.573577 93.980441z" p-id="9757" fill="#999999"></path></svg>