<?xml version="1.0" standalone="no"?><!DOCTYPE svg PUBLIC "-//W3C//DTD SVG 1.1//EN" "http://www.w3.org/Graphics/SVG/1.1/DTD/svg11.dtd"><svg t="1493283892189" class="icon" style="" viewBox="0 0 1024 1024" version="1.1" xmlns="http://www.w3.org/2000/svg" p-id="4146" xmlns:xlink="http://www.w3.org/1999/xlink" width="128" height="128"><defs><style type="text/css"></style></defs><path d="M511.976976 16.34834c-273.729292 0-495.630171 221.900879-495.630171 495.65166 0 273.728268 221.900879 495.65166 495.630171 495.65166 273.751804 0 495.67315-221.923392 495.67315-495.65166C1007.650125 238.249219 785.72878 16.34834 511.976976 16.34834zM511.976976 974.096427c-255.186983 0-462.054471-206.906373-462.054471-462.096427 0-255.208473 206.867488-462.096427 462.054471-462.096427 255.232009 0 462.117916 206.887954 462.117916 462.096427C974.094892 767.190053 767.208984 974.096427 511.976976 974.096427zM512.019954 226.394217c-9.272177 0-16.798595 7.52744-16.798595 16.798595l0 336.039429c0 9.271154 7.526417 16.820084 16.798595 16.820084 9.289574 0 16.818037-7.54893 16.818037-16.820084L528.837992 243.192811C528.837992 233.921657 521.309528 226.394217 512.019954 226.394217zM512.019954 705.249329c-9.272177 0-16.798595 7.525394-16.798595 16.819061l0 58.779731c0 9.293667 7.526417 16.820084 16.798595 16.820084 9.289574 0 16.818037-7.525394 16.818037-16.820084l0-58.779731C528.837992 712.774723 521.309528 705.249329 512.019954 705.249329z" p-id="4147" fill="#ffffff"></path></svg>