<?xml version="1.0" standalone="no"?><!DOCTYPE svg PUBLIC "-//W3C//DTD SVG 1.1//EN" "http://www.w3.org/Graphics/SVG/1.1/DTD/svg11.dtd"><svg t="1491801253516" class="icon" style="" viewBox="0 0 1024 1024" version="1.1" xmlns="http://www.w3.org/2000/svg" p-id="2379" xmlns:xlink="http://www.w3.org/1999/xlink" width="60" height="60"><defs><style type="text/css"></style></defs><path d="M782.300192 145.117099C667.128103 225.846748 516.900613 351.013469 370.748952 577.24498c-146.153708 226.232534-217.216183 427.871951-123.464963 370.395912 0 0 155.401326-299.705919 267.50759-349.818247 112.104217-50.112328 219.810265-62.671365 288.085254-144.042627 0 0 30.549783-56.570413-102.887298 0 0 0-46.674019-6.687306 20.577664-41.155329 67.25066-34.465976 207.29216-105.104803 226.353284-164.620291 0 0 29.889751-38.191834-61.732993 0s-108.505249 21.237697-41.155329-20.577664c67.349921-41.811268 137.40137-99.708909 144.042627-144.042627C994.715023 39.050388 897.472282 64.389496 782.300192 145.117099zM392.071583 155.623383c0-22.728654-18.426675-41.155329-41.155329-41.155329L103.985306 114.468055c-22.728654 0-41.155329 18.426675-41.155329 41.155329l0 349.818247c0 22.730701 18.426675 41.155329 41.155329 41.155329s41.155329-18.424628 41.155329-41.155329L145.140635 196.778712 350.916255 196.778712C373.644909 196.778712 392.071583 178.354084 392.071583 155.623383zM915.160129 670.062945c-22.730701 0-41.155329 18.426675-41.155329 41.155329l0 164.620291L544.764218 875.838565c-22.730701 0-41.155329 18.426675-41.155329 41.155329 0 22.730701 18.424628 41.157375 41.155329 41.157375l349.818247 0c3.552919 0 7.000438-0.450255 10.288321-1.296529 3.288906 0.846274 6.736425 1.296529 10.289344 1.296529 22.728654 0 41.155329-18.426675 41.155329-41.157375L956.315458 711.218274C956.315458 688.48962 937.888783 670.062945 915.160129 670.062945z" p-id="2380" fill="#ffffff"></path><path d="M782.300192 145.117099C667.128103 225.846748 516.900613 351.013469 370.748952 577.24498c-146.153708 226.232534-217.216183 427.871951-123.464963 370.395912 0 0 155.401326-299.705919 267.50759-349.818247 112.104217-50.112328 219.810265-62.671365 288.085254-144.042627 0 0 30.549783-56.570413-102.887298 0 0 0-46.674019-6.687306 20.577664-41.155329 67.25066-34.465976 207.29216-105.104803 226.353284-164.620291 0 0 29.889751-38.191834-61.732993 0s-108.505249 21.237697-41.155329-20.577664c67.349921-41.811268 137.40137-99.708909 144.042627-144.042627C994.715023 39.050388 897.472282 64.389496 782.300192 145.117099zM392.071583 155.623383c0-22.728654-18.426675-41.155329-41.155329-41.155329L103.985306 114.468055c-22.728654 0-41.155329 18.426675-41.155329 41.155329l0 349.818247c0 22.730701 18.426675 41.155329 41.155329 41.155329s41.155329-18.424628 41.155329-41.155329L145.140635 196.778712 350.916255 196.778712C373.644909 196.778712 392.071583 178.354084 392.071583 155.623383zM915.160129 670.062945c-22.730701 0-41.155329 18.426675-41.155329 41.155329l0 164.620291L544.764218 875.838565c-22.730701 0-41.155329 18.426675-41.155329 41.155329 0 22.730701 18.424628 41.157375 41.155329 41.157375l349.818247 0c3.552919 0 7.000438-0.450255 10.288321-1.296529 3.288906 0.846274 6.736425 1.296529 10.289344 1.296529 22.728654 0 41.155329-18.426675 41.155329-41.157375L956.315458 711.218274C956.315458 688.48962 937.888783 670.062945 915.160129 670.062945z" p-id="2381" fill="#ffffff"></path></svg>